PathFileType	4	(X/Y/Z)	Kaydara																																																																																																																									
DataRate	CameraRate	NumFrames	NumMarkers	Units	OrigDataRate	OrigDataStartFrame	OrigNumFrames																																																																																																																					
30	30	4	41	mm	30	69	180																																																																																																																					
Frame#	Time	SALE_LFHD			SALE_RFHD			SALE_LBHD			SALE_RBHD			SALE_LFTShould			SALE_RFTShould			SALE_LRRShould			SALE_RRRShould			SALE_T10			SALE_STRN			SALE_TRUN			SALE_LSHO			SALE_LUPA			SALE_LELB			SALE_LFRM			SALE_LWRA			SALE_LWRB			SALE_LFIN			SALE_RSHO			SALE_RUPA			SALE_RELB			SALE_RFRM			SALE_RWRB			SALE_RFIN			SALE_LFWT			SALE_RFWT			SALE_LBWT			SALE_RBWT			SALE_LTHI			SALE_LKNE			SALE_RWRA			SALE_LSHN			SALE_LANK			SALE_LHEE			SALE_LTOE			SALE_RTHI			SALE_RKNE			SALE_RSHN			SALE_RANK			SALE_RHEE			SALE_RTOE		
		X1	Y1	Z1	X2	Y2	Z2	X3	Y3	Z3	X4	Y4	Z4	X5	Y5	Z5	X6	Y6	Z6	X7	Y7	Z7	X8	Y8	Z8	X9	Y9	Z9	X10	Y10	Z10	X11	Y11	Z11	X12	Y12	Z12	X13	Y13	Z13	X14	Y14	Z14	X15	Y15	Z15	X16	Y16	Z16	X17	Y17	Z17	X18	Y18	Z18	X19	Y19	Z19	X20	Y20	Z20	X21	Y21	Z21	X22	Y22	Z22	X23	Y23	Z23	X24	Y24	Z24	X25	Y25	Z25	X26	Y26	Z26	X27	Y27	Z27	X28	Y28	Z28	X29	Y29	Z29	X30	Y30	Z30	X31	Y31	Z31	X32	Y32	Z32	X33	Y33	Z33	X34	Y34	Z34	X35	Y35	Z35	X36	Y36	Z36	X37	Y37	Z37	X38	Y38	Z38	X39	Y39	Z39	X40	Y40	Z40	X41	Y41	Z41
																																																																																																																												
68	2.283	216.68371	1649.95148	-1964.61349	85.69036	1643.83743	-1970.70679	219.61344	1637.13608	-2099.27628	92.80296	1629.9733	-2098.24463	236.13829	1392.35382	-2016.14334	94.42762	1387.60605	-2017.53922	228.89664	1448.62915	-2129.21829	77.91551	1452.38525	-2122.00027	152.21148	1297.50519	-2198.11249	160.27832	1316.61316	-1970.01892	158.0094	1229.25743	-1930.94711	350.47691	1416.25702	-2083.87741	392.84706	1198.43246	-2095.19516	379.48765	1089.24217	-2114.58099	403.63041	984.55437	-2076.39709	332.88727	850.83664	-2013.05038	402.60567	840.77576	-2043.64319	393.61465	800.59738	-1993.86856	-14.93876	1417.83173	-2077.48383	-48.63214	1188.75099	-2143.76511	-74.61827	1087.48016	-2100.0441	-66.40059	974.93759	-2110.69321	-87.0378	838.10944	-2063.50479	-92.9331	798.88107	-2008.71933	285.66959	972.75955	-1994.01688	6.41956	971.24809	-2012.06314	237.40953	1043.63281	-2161.24985	60.54023	1047.93053	-2172.94724	291.77595	678.38234	-2169.64111	279.87564	505.51258	-2098.17932	-39.66094	850.10574	-2008.18954	277.201	307.37059	-2110.02487	274.53749	125.49939	-2166.5126	235.1931	76.4315	-2231.32538	250.01265	87.22887	-2034.68216	5.80565	724.25568	-2175.13718	26.18245	562.4514	-2074.91806	80.42366	374.39762	-2094.87228	37.73343	122.86201	-2155.43457	48.44424	79.27816	-2035.83588	84.19987	62.44556	-2226.48346
69	2.317	215.08131	1649.8465	-1959.84497	84.24242	1643.67493	-1966.28479	218.47557	1636.90308	-2094.57458	91.65589	1629.59915	-2093.76099	235.1145	1392.62436	-2011.05484	92.38345	1387.55081	-2013.30048	227.87756	1448.94928	-2124.095	76.89669	1452.42294	-2117.14294	151.32299	1297.91763	-2193.66562	159.1751	1316.39328	-1965.3067	156.7569	1228.81493	-1926.548	349.61773	1416.65924	-2078.60718	392.19795	1198.8855	-2090.70862	379.00158	1089.74648	-2110.62576	403.27282	984.95667	-2072.91611	332.78118	850.90103	-2010.11658	402.37671	841.00883	-2040.80246	393.43937	800.61676	-1991.15753	-16.02323	1417.71347	-2072.63992	-49.66526	1188.95935	-2139.91882	-75.79866	1087.69249	-2096.62384	-67.42629	974.99886	-2107.65793	-88.05304	837.87476	-2061.05591	-93.88233	798.52768	-2006.39297	284.52675	972.31491	-1990.96054	5.48609	970.90919	-2008.97171	236.30747	1043.70827	-2158.02933	59.40255	1048.00949	-2169.75006	291.1718	678.3783	-2166.50467	279.34895	505.40142	-2095.44205	-40.55078	849.82338	-2005.62332	276.89009	307.01988	-2108.5173	274.56249	125.62834	-2165.88867	235.36568	76.5228	-2231.32965	250.32358	87.28707	-2034.77081	4.97924	724.27399	-2172.67365	25.64761	562.27489	-2072.78641	80.25425	374.22184	-2093.51929	37.64002	122.86507	-2155.18768	48.45545	79.29448	-2035.82794	84.19976	62.45422	-2226.47125
70	2.35	213.57664	1649.85718	-1954.5871	82.59974	1643.4726	-1961.30798	217.19208	1636.58112	-2089.17648	90.35291	1629.19434	-2088.67752	233.82561	1392.93015	-2005.08179	89.62233	1386.59012	-2010.12024	226.59477	1449.67911	-2118.68408	75.69009	1452.48138	-2111.5593	150.15576	1298.46771	-2188.64105	157.83689	1316.15082	-1959.85016	155.4957	1228.32657	-1921.62308	348.30635	1417.13882	-2072.46552	391.19469	1199.47952	-2085.79376	378.24776	1090.43419	-2106.4949	402.60662	985.38345	-2069.29123	332.45102	851.10703	-2006.94092	401.93897	841.34644	-2037.80914	393.17924	800.78629	-1988.46588	-17.22809	1417.677	-2067.20901	-50.80447	1189.21021	-2135.37476	-76.88432	1087.63512	-2092.52411	-68.66388	975.08377	-2104.20624	-89.18631	837.64778	-2058.38577	-94.85003	798.10646	-2003.78632	283.08603	972.01096	-1987.23419	3.69611	970.70328	-2005.11841	235.03733	1043.75839	-2154.31396	58.09305	1048.05191	-2166.14532	290.49885	678.3876	-2162.8923	278.61755	505.4121	-2091.94672	-41.90702	849.46167	-2002.97043	276.52151	306.65775	-2106.595	274.64218	125.7154	-2165.5014	235.56469	76.6373	-2231.42212	250.64234	87.35254	-2034.90143	4.05175	724.27299	-2169.8735	24.99456	562.03411	-2070.33325	79.83059	373.84312	-2091.79031	37.52738	122.82871	-2154.96536	48.46429	79.28065	-2035.79727	84.15216	62.53109	-2226.50223
71	2.383	211.80038	1649.75266	-1948.69003	80.8055	1643.36212	-1955.63446	215.67513	1636.08871	-2083.15582	88.83865	1628.71964	-2082.99057	232.2196	1392.99774	-1998.42194	90.12054	1387.3764	-2001.08368	225.13964	1449.83902	-2111.68213	74.19894	1452.49634	-2105.14221	148.81145	1299.05624	-2182.85995	156.12256	1315.74417	-1953.83621	153.76151	1227.76825	-1916.09756	346.68888	1417.30179	-2065.23285	389.98878	1200.03708	-2080.52582	377.06333	1091.07719	-2102.07855	401.59256	985.75493	-2065.47012	331.61907	850.97504	-2003.63434	401.10722	841.5609	-2034.75525	392.55505	800.78743	-1985.60654	-18.81415	1417.60498	-2061.04523	-52.42117	1189.52362	-2130.34805	-78.38404	1087.66792	-2087.94876	-70.19754	975.17929	-2100.18448	-90.4725	837.30347	-2055.22232	-96.03196	797.62352	-2000.78873	281.35855	971.55731	-1983.16956	2.12148	970.11627	-2001.33331	233.59013	1043.6998	-2149.97879	56.66543	1047.96379	-2162.09946	289.55151	678.34732	-2158.66714	277.48198	505.26836	-2088.16727	-43.1959	848.81615	-1999.74304	275.93445	306.22311	-2104.50714	274.6258	125.83941	-2165.0325	235.71003	76.62554	-2231.44363	250.85384	87.40548	-2035.02457	2.97794	724.27483	-2166.74438	24.16816	561.75457	-2067.53876	79.33442	373.45493	-2089.92752	37.43329	122.80393	-2154.69833	48.47184	79.28668	-2035.79559	84.09409	62.56459	-2226.49506
